HIERARCHY
ROOT Hips
{
	OFFSET 54.408798 -4.798514 84.470497
	CHANNELS 6 Xposition Yposition Zposition Xrotation Yrotation Zrotation
	JOINT spine
	{
		OFFSET 0.000000 -0.342408 5.954384
		CHANNELS 3 Xrotation Yrotation Zrotation
		JOINT spine1
		{
			OFFSET 0.000000 -0.000001 8.856018
			CHANNELS 3 Xrotation Yrotation Zrotation
			JOINT spine2
			{
				OFFSET 0.000000 -0.000001 8.485672
				CHANNELS 3 Xrotation Yrotation Zrotation
				JOINT Neck
				{
					OFFSET 0.000000 -1.038703 21.786301
					CHANNELS 3 Xrotation Yrotation Zrotation
					JOINT Head
					{
						OFFSET 0.000000 -0.000001 6.582199
						CHANNELS 3 Xrotation Yrotation Zrotation
						End Site
						{
							OFFSET 0.000000 5.254358 15.932602
						}
					}
				}
				JOINT RightShoulder
				{
					OFFSET -3.573071 0.497524 9.163864
					CHANNELS 3 Xrotation Yrotation Zrotation
					JOINT RightArm
					{
						OFFSET 0.000000 -0.000002 12.019196
						CHANNELS 3 Xrotation Yrotation Zrotation
						JOINT RightArmRoll
						{
							OFFSET 0.000000 -0.000001 6.067551
							CHANNELS 3 Xrotation Yrotation Zrotation
							JOINT RightForeArm
							{
								OFFSET 0.000000 -0.000003 17.672607
								CHANNELS 3 Xrotation Yrotation Zrotation
								JOINT RightForeArmRoll
								{
									OFFSET 0.000000 -0.000001 6.808716
									CHANNELS 3 Xrotation Yrotation Zrotation
									JOINT RightHand
									{
										OFFSET 0.000000 -0.000002 13.663605
										CHANNELS 3 Xrotation Yrotation Zrotation
										End Site
										{
											OFFSET 0.000000 0.000000 0.100006
										}
									}
								}
							}
						}
					}
				}
				JOINT LeftShoulder
				{
					OFFSET 3.573071 0.497524 9.163864
					CHANNELS 3 Xrotation Yrotation Zrotation
					JOINT LeftArm
					{
						OFFSET 0.000000 -0.000002 12.019196
						CHANNELS 3 Xrotation Yrotation Zrotation
						JOINT LeftArmRoll
						{
							OFFSET 0.000000 -0.000001 6.067551
							CHANNELS 3 Xrotation Yrotation Zrotation
							JOINT LeftForeArm
							{
								OFFSET 0.000000 -0.000003 17.672607
								CHANNELS 3 Xrotation Yrotation Zrotation
								JOINT LeftForeArmRoll
								{
									OFFSET 0.000000 -0.000001 6.808716
									CHANNELS 3 Xrotation Yrotation Zrotation
									JOINT LeftHand
									{
										OFFSET 0.000000 -0.000002 13.663605
										CHANNELS 3 Xrotation Yrotation Zrotation
										End Site
										{
											OFFSET 0.000000 0.000000 0.100006
										}
									}
								}
							}
						}
					}
				}
			}
		}
	}
	JOINT RightUpLeg
	{
		OFFSET -5.277740 0.811858 -0.967796
		CHANNELS 3 Xrotation Yrotation Zrotation
		JOINT RightUpLegRoll
		{
			OFFSET 0.000000 -0.000003 16.021400
			CHANNELS 3 Xrotation Yrotation Zrotation
			JOINT RightLeg
			{
				OFFSET 0.000000 0.000003 -19.840096
				CHANNELS 3 Xrotation Yrotation Zrotation
				JOINT RightLegRoll
				{
					OFFSET 0.000000 -0.000003 19.904999
					CHANNELS 3 Xrotation Yrotation Zrotation
					JOINT RightFoot
					{
						OFFSET 0.000000 -0.000003 16.567497
						CHANNELS 3 Xrotation Yrotation Zrotation
						JOINT RightToeBase
						{
							OFFSET 0.000000 -0.000002 13.849602
							CHANNELS 3 Xrotation Yrotation Zrotation
							End Site
							{
								OFFSET 0.005871 0.773116 6.707275
							}
						}
					}
				}
			}
		}
	}
	JOINT LeftUpLeg
	{
		OFFSET 5.277740 0.811858 -0.967796
		CHANNELS 3 Xrotation Yrotation Zrotation
		JOINT LeftUpLegRoll
		{
			OFFSET 0.000000 -0.000003 16.021500
			CHANNELS 3 Xrotation Yrotation Zrotation
			JOINT LeftLeg
			{
				OFFSET 0.000000 -0.000003 19.839996
				CHANNELS 3 Xrotation Yrotation Zrotation
				JOINT LeftLegRoll
				{
					OFFSET 0.000000 -0.000003 20.089005
					CHANNELS 3 Xrotation Yrotation Zrotation
					JOINT LeftFoot
					{
						OFFSET 0.000000 -0.000003 16.383499
						CHANNELS 3 Xrotation Yrotation Zrotation
						JOINT LeftToeBase
						{
							OFFSET 0.000000 -0.000002 13.849594
							CHANNELS 3 Xrotation Yrotation Zrotation
							End Site
							{
								OFFSET -0.026310 0.773115 6.707275
							}
						}
					}
				}
			}
		}
	}
}
MOTION
Frames: 6
Frame Time: 0.041667
54.281300 -3.117579 84.414993 -9.463404 -0.995902 -1.580355 -0.289690 -0.061821 0.063894 3.437194 -0.102154 0.115152 5.082277 -0.100787 0.120724 10.266370 5.808189 -0.222600 8.049380 -6.259824 -0.088512 1.067065 -74.227600 -0.554101 -53.204418 -112.707608 -56.386121 0.000002 0.000000 0.000001 -0.027077 3.638040 -1.990831 -0.000001 0.000006 -3.011610 -5.000164 -7.999939 -0.000007 -12.831774 72.271010 15.600975 -45.678888 117.290973 52.458892 0.000001 0.000000 0.000000 -0.027193 -3.640500 1.990653 0.000005 -0.000004 3.011600 -5.000171 7.999927 -0.000010 2.376586 -176.773779 5.584977 -179.999991 0.000005 -1.161004 169.566399 -4.015713 -0.688805 -0.000000 0.000001 0.148001 70.145852 6.866063 2.116560 25.456953 -7.355615 0.000011 3.836602 179.679724 -0.018877 -0.000004 -0.000004 -1.180600 -9.116467 2.059150 0.423594 -0.000002 0.000000 -0.149862 70.016392 -6.855936 -2.136874 25.456952 7.355615 -0.000001 
54.271000 -3.131250 84.416489 -9.466765 -0.995745 -1.579858 -0.288480 -0.061401 0.063895 3.438635 -0.103147 0.115151 5.083708 -0.101778 0.120723 10.260629 5.807574 -0.225507 8.062004 -6.268167 -0.089660 1.024430 -74.210804 -0.598443 -53.159608 -112.689317 -56.337688 0.000001 0.000000 0.000001 -0.027078 3.638040 -1.990832 0.000000 0.000005 -3.011610 -5.000164 -7.999939 -0.000007 -12.837648 72.261339 15.607139 -45.617997 117.268160 52.393920 -0.000001 0.000000 -0.000000 -0.027193 -3.640500 1.990653 0.000006 -0.000004 3.011601 -5.000171 7.999928 -0.000009 2.372692 -176.772768 5.584370 -179.999991 0.000005 -1.161004 169.551810 -4.012568 -0.688286 -0.000001 0.000000 0.148002 70.150735 6.866078 2.116560 25.456952 -7.355613 0.000010 3.821550 179.682715 -0.015982 -0.000004 -0.000004 -1.180600 -9.137956 2.056479 0.423538 -0.000002 0.000000 -0.149862 70.018824 -6.855937 -2.136825 25.456957 7.355615 -0.000001 
54.273399 -3.126692 84.413589 -9.469936 -0.995893 -1.579349 -0.287281 -0.060910 0.063895 3.440014 -0.104072 0.115151 5.085088 -0.102702 0.120724 10.254194 5.807545 -0.228255 8.075436 -6.277091 -0.090629 0.980637 -74.192704 -0.643899 -53.112159 -112.671326 -56.287801 -0.000001 -0.000000 0.000000 -0.027079 3.638040 -1.990832 0.000001 0.000006 -3.011611 -5.000162 -7.999939 -0.000008 -12.845157 72.251039 15.615073 -45.555623 117.246071 52.328193 0.000000 0.000000 0.000000 -0.027193 -3.640500 1.990654 0.000006 -0.000004 3.011600 -5.000170 7.999927 -0.000009 2.368158 -176.770760 5.583997 -179.999991 0.000005 -1.161004 169.536415 -4.009428 -0.688822 -0.000000 0.000001 0.148003 70.155926 6.866066 2.116538 25.456952 -7.355616 0.000011 3.805705 179.685693 -0.012686 -0.000004 -0.000004 -1.180600 -9.159895 2.053637 0.423450 -0.000002 0.000000 -0.149862 70.021262 -6.855937 -2.136874 25.456950 7.355614 -0.000000 
54.277802 -3.123611 84.413300 -9.472964 -0.996240 -1.578841 -0.286081 -0.060369 0.063895 3.441355 -0.104950 0.115151 5.086427 -0.103578 0.120724 10.247265 5.807907 -0.230889 8.089398 -6.286431 -0.091470 0.936074 -74.173689 -0.690103 -53.062046 -112.653643 -56.236045 0.000001 -0.000000 0.000001 -0.027078 3.638041 -1.990832 -0.000001 0.000005 -3.011611 -5.000162 -7.999938 -0.000007 -12.853783 72.240356 15.624235 -45.491761 117.224706 52.261305 0.000001 -0.000000 0.000000 -0.027194 -3.640499 1.990652 0.000005 -0.000004 3.011601 -5.000172 7.999927 -0.000010 2.363175 -176.768752 5.583769 -179.999991 0.000005 -1.161005 169.520391 -4.007247 -0.688580 -0.000000 0.000001 0.148003 70.161336 6.866057 2.116602 25.456948 -7.355616 0.000011 3.789306 179.689682 -0.009042 -0.000004 -0.000004 -1.180600 -9.182154 2.050655 0.423335 -0.000002 0.000001 -0.149862 70.023789 -6.855905 -2.136812 25.456950 7.355614 -0.000001 
54.298401 -3.107072 84.409302 -9.475915 -0.996704 -1.578332 -0.284888 -0.059799 0.063895 3.442684 -0.105802 0.115152 5.087757 -0.104427 0.120724 10.240137 5.808499 -0.233467 8.103698 -6.296004 -0.092238 0.891117 -74.154080 -0.736670 -53.009808 -112.636499 -56.182530 -0.000001 0.000000 0.000001 -0.027078 3.638040 -1.990831 -0.000000 0.000005 -3.011610 -5.000162 -7.999938 -0.000008 -12.863078 72.229435 15.634110 -45.427667 117.203300 52.194591 0.000000 0.000000 0.000000 -0.027193 -3.640500 1.990653 0.000007 -0.000004 3.011600 -5.000169 7.999928 -0.000010 2.357940 -176.766744 5.583615 -179.999991 0.000005 -1.161004 169.504081 -4.004094 -0.689175 -0.000001 0.000001 0.148003 70.166759 6.866080 2.116571 25.456953 -7.355616 0.000011 3.772583 179.693657 -0.005238 -0.000005 -0.000004 -1.180600 -9.204588 2.047613 0.423207 -0.000002 0.000001 -0.149862 70.026228 -6.855904 -2.136862 25.456953 7.355614 -0.000001 
54.305500 -3.097924 84.398201 -9.478859 -0.997199 -1.577827 -0.283693 -0.059222 0.063895 3.444006 -0.106646 0.115152 5.089077 -0.105269 0.120725 10.232910 5.809141 -0.236025 8.118071 -6.305633 -0.092985 0.846150 -74.134457 -0.783237 -52.957315 -112.619294 -56.128913 0.000000 0.000000 0.000001 -0.027078 3.638041 -1.990831 0.000001 0.000005 -3.011609 -5.000163 -7.999938 -0.000007 -12.872472 72.218390 15.644115 -45.363620 117.182004 52.127929 0.000001 0.000000 0.000000 -0.027191 -3.640500 1.990654 0.000005 -0.000004 3.011601 -5.000169 7.999927 -0.000009 2.352638 -176.764736 5.583488 -179.999991 0.000005 -1.161003 169.487688 -4.000927 -0.688776 -0.000001 0.000000 0.148003 70.172278 6.866074 2.116529 25.456953 -7.355615 0.000010 3.755791 179.698643 -0.001332 -0.000005 -0.000004 -1.180600 -9.227065 2.044541 0.423072 -0.000002 0.000000 -0.149862 70.028686 -6.855938 -2.136816 25.456953 7.355614 -0.000000 
